<?xml version="1.0" encoding="UTF-8" standalone="no"?>
<!DOCTYPE svg PUBLIC "-//W3C//DTD SVG 1.1//EN" "http://www.w3.org/Graphics/SVG/1.1/DTD/svg11.dtd">
<svg fill="#ffffff" width="100%" height="100%" viewBox="0 0 800 800" version="1.1"
    xmlns="http://www.w3.org/2000/svg" xmlnsXlink="http://www.w3.org/1999/xlink" xmlSpace="preserve"
    xmlnsSerif="http://www.serif.com/"
    style="fill-rule:evenodd;clip-rule:evenodd;stroke-linejoin:round;stroke-miterlimit:2;">
    <g transform="matrix(1.28081,5.4951e-17,-2.74755e-17,1.27478,-130.414,-50.8629)">
        <path
            d="M348.784,464.804C347.725,463.298 346.277,462.109 344.594,461.363L274.591,430.313C270.609,428.547 265.943,429.515 262.993,432.722C260.043,435.928 259.466,440.658 261.557,444.48L269.699,459.361C269.699,459.361 257.487,459.361 257.487,459.361C253.399,459.361 249.709,461.811 248.122,465.579C246.535,469.346 247.361,473.698 250.218,476.623L261.003,487.665C261.003,487.665 260.948,487.442 257.652,488.37C229.8,496.211 222.249,517.5 218.712,517.895C188.479,521.274 226.037,550.288 228.338,553.022C288.142,641.659 486.003,656.692 528.896,607.608C530.782,605.45 531.579,602.545 531.197,599.704L527.916,575.333C527.916,575.333 545.812,557.437 545.812,557.437C547.817,555.431 548.893,552.679 548.78,549.846C548.667,547.012 547.375,544.355 545.216,542.516L529.973,529.531C528.437,528.223 526.546,527.401 524.541,527.171C490.454,523.263 461.861,521.179 434.423,504.332C434.065,504.112 432.106,502.74 428.455,502.819C426.399,502.863 417.978,504.69 404.735,503.447C384.637,498.727 368.211,489.502 358.782,479.01C358.781,479.009 348.784,464.804 348.784,464.804ZM677.694,396.915C678.901,402.319 682.838,429.415 666.933,459.704C647.292,497.109 628.765,504.395 621.15,508.254C588.409,524.844 466.815,514.263 438.394,492.463C440.299,490.065 442.118,487.653 443.857,485.224C487.853,478.824 521.69,440.905 521.69,395.145C521.69,359.262 500.884,328.201 470.687,313.377C467.977,298.083 464.884,283.87 462.496,271.239C520.037,275.567 666.319,345.964 677.694,396.915ZM412.053,323.847C407.654,293.528 398.694,264.007 402.008,251.893C409.047,245.867 439.896,250.396 443.22,259.232C448.616,273.066 455.267,297.983 458.683,326.999C485.464,338.038 504.331,364.405 504.331,395.145C504.331,433.679 474.682,465.343 436.977,468.549C430.592,480.835 423.675,489.98 417.251,494.08C412.956,496.821 368.868,483.508 364.184,472.627C364.341,466.357 369.533,456.578 376.466,445.031C364.375,431.906 356.987,414.381 356.987,395.145C356.987,360.912 380.385,332.102 412.053,323.847ZM348.732,366.716C349.954,363.769 349.72,360.419 348.102,357.67C346.483,354.92 343.667,353.091 340.498,352.729L197.105,336.357C193.066,335.896 189.14,337.887 187.126,341.419C185.111,344.951 185.396,349.343 187.849,352.585L219.464,394.361C220.532,395.773 221.951,396.881 223.58,397.576L342.697,448.384C346.811,450.139 351.588,448.998 354.465,445.573C357.341,442.148 357.641,437.245 355.202,433.496C342.229,413.554 341.422,384.35 348.732,366.716ZM233.908,325.731C235.51,328.029 237.99,329.564 240.761,329.973L275.198,335.054C277.897,335.452 280.643,334.748 282.817,333.101L301.447,318.987C305.359,316.024 306.594,310.687 304.381,306.307L288.636,275.131C288.636,275.131 379.425,313.474 379.425,313.474C382.791,314.896 386.66,314.401 389.56,312.178C392.46,309.956 393.943,306.348 393.446,302.729L387.236,257.566C386.737,253.936 384.323,250.857 380.917,249.505L200.265,177.809C196.22,176.204 191.602,177.352 188.78,180.666C185.959,183.979 185.56,188.721 187.79,192.459L234.994,271.61C234.994,271.61 215.8,272.51 215.8,272.51C212.104,272.683 208.794,274.852 207.16,278.171C205.525,281.49 205.824,285.436 207.939,288.471L233.908,325.731Z" />
    </g>
</svg>