<?xml version="1.0" encoding="UTF-8" standalone="no"?>
<!DOCTYPE svg PUBLIC "-//W3C//DTD SVG 1.1//EN" "http://www.w3.org/Graphics/SVG/1.1/DTD/svg11.dtd">
<svg fill="#ffffff" width="100%" height="100%" viewBox="0 0 800 500" version="1.1"
    xmlns="http://www.w3.org/2000/svg" xmlnsXlink="http://www.w3.org/1999/xlink" xmlSpace="preserve"
    xmlnsSerif="http://www.serif.com/"
    style="fill-rule:evenodd;clip-rule:evenodd;stroke-linejoin:round;stroke-miterlimit:2;">
    <g transform="matrix(1.12907,0,0,1.12907,-54.9843,-96.5413)">
        <path
            d="M591.929,419.589L591.929,497.078C591.929,509.911 581.51,520.33 568.676,520.33C555.842,520.33 545.423,509.911 545.423,497.078L545.423,421.622C562.666,422.162 578.961,421.553 591.929,419.589ZM179.051,163.532C179.051,150.699 168.632,140.28 155.798,140.28C142.964,140.28 132.545,150.699 132.545,163.532L132.545,450.953C132.545,463.787 142.964,474.206 155.798,474.206C168.632,474.206 179.051,463.787 179.051,450.953L179.051,163.532ZM625.335,255.882L625.335,171.919C625.335,159.085 635.755,148.666 648.588,148.666C661.422,148.666 671.841,159.085 671.841,171.919L671.841,442.567C671.841,455.4 661.422,465.82 648.588,465.82C635.755,465.82 625.335,455.4 625.335,442.567L625.335,405.543C657.734,379.372 672.264,326.305 667.606,305.442C664.142,289.927 647.837,272.562 625.335,255.882ZM212.596,280.316L212.596,413.977C212.596,426.811 223.015,437.23 235.849,437.23C248.682,437.23 259.102,426.811 259.102,413.977L259.102,325.307L243.882,318.815C241.8,317.927 239.987,316.511 238.622,314.707L212.596,280.316ZM751.842,244.727C751.842,231.893 741.423,221.474 728.59,221.474C715.756,221.474 705.337,231.893 705.337,244.727L705.337,369.759C705.337,382.592 715.756,393.011 728.59,393.011C741.423,393.011 751.842,382.592 751.842,369.759L751.842,244.727ZM98.713,248.92C98.713,236.086 88.294,225.667 75.46,225.667C62.626,225.667 52.207,236.086 52.207,248.92L52.207,365.565C52.207,378.399 62.626,388.818 75.46,388.818C88.294,388.818 98.713,378.399 98.713,365.565L98.713,248.92ZM212.596,204.35L212.596,240.881L240.177,244.03L213.195,205.317C212.977,205.004 212.777,204.681 212.596,204.35ZM545.423,210.254L545.423,117.408C545.423,104.574 555.842,94.155 568.676,94.155C581.51,94.155 591.929,104.574 591.929,117.408L591.929,234.093C577.037,225.429 561.151,217.336 545.423,210.254ZM235.287,177.262C225.748,177.489 217.624,183.471 214.258,191.866C216.114,189.937 218.664,188.749 221.419,188.619C221.419,188.619 241.499,187.678 241.499,187.678L235.287,177.262Z" />
        <path
            d="M357.564,277.446C358.646,274.836 358.439,271.869 357.006,269.434C355.572,266.999 353.078,265.379 350.271,265.058L223.271,250.558C219.693,250.15 216.216,251.913 214.432,255.041C212.648,258.169 212.9,262.059 215.073,264.931L243.073,301.931C244.02,303.182 245.276,304.163 246.719,304.778L352.219,349.778C355.863,351.333 360.094,350.322 362.642,347.288C365.189,344.255 365.454,339.913 363.294,336.592C351.804,318.93 351.09,293.064 357.564,277.446Z" />
        <path
            d="M630.566,371.97C622.485,384.854 611.888,396.192 598.84,402.804C569.842,417.497 462.148,408.126 436.976,388.818C438.663,386.694 440.274,384.558 441.815,382.407C480.781,376.738 510.75,343.154 510.75,302.625C510.75,270.844 492.322,243.334 465.577,230.204C463.177,216.659 460.437,204.071 458.323,192.884C509.286,196.717 638.845,259.067 648.92,304.193C651.132,314.1 648.585,331.993 641.452,350.216L611.522,358.623C611.522,358.623 593.757,340.032 593.757,340.032C591.083,337.234 586.92,336.459 583.418,338.107L555.686,351.157C555.686,351.157 539.141,331.461 539.141,331.461C535.946,327.658 530.265,327.164 526.461,330.359C522.658,333.554 522.164,339.235 525.359,343.039L546.359,368.039C548.985,371.165 553.387,372.132 557.082,370.393L585.219,357.152C585.219,357.152 602.243,374.968 602.243,374.968C604.542,377.373 607.98,378.315 611.184,377.415L630.566,371.97ZM509.061,252.932L544.142,274.345C544.142,274.345 547.904,294.409 547.904,294.409C548.82,299.291 553.526,302.511 558.409,301.596C563.291,300.68 566.511,295.974 565.596,291.091L561.096,267.091C560.626,264.585 559.115,262.396 556.939,261.068L518.439,237.568C514.199,234.98 508.656,236.321 506.068,240.561C503.48,244.801 504.821,250.344 509.061,252.932Z" />
        <path
            d="M413.646,239.478C409.75,212.625 401.814,186.478 404.75,175.75C410.984,170.412 438.307,174.424 441.25,182.25C446.03,194.502 451.92,216.57 454.946,242.269C478.665,252.046 495.375,275.4 495.375,302.625C495.375,336.754 469.116,364.798 435.721,367.638C430.066,378.519 423.94,386.619 418.25,390.25C414.446,392.678 375.398,380.886 371.25,371.25C371.389,365.696 375.987,357.035 382.128,346.809C371.419,335.184 364.875,319.662 364.875,302.625C364.875,272.306 385.598,246.789 413.646,239.478ZM409.136,335.004C409.136,335.004 414.895,326.937 424.787,329.264C434.637,331.581 436.099,341.296 436.099,341.296C436.547,344.603 439.431,346.803 442.536,346.207C445.642,345.612 447.799,342.444 447.351,339.137C447.351,339.137 445.107,321.488 427.595,317.369C410.125,313.259 400.092,327.971 400.092,327.971C398.191,330.713 398.674,334.515 401.17,336.456C403.666,338.396 407.235,337.746 409.136,335.004ZM401.9,313.748C401.9,313.748 413.501,300.329 430.182,304.346C446.683,308.32 450.322,324.93 450.322,324.93C451.096,328.564 454.504,330.737 457.927,329.78C461.35,328.822 463.5,325.095 462.725,321.461C462.725,321.461 457.583,296.883 433.383,291.055C409.362,285.27 392.687,304.712 392.687,304.712C390.268,307.523 390.368,311.83 392.91,314.324C395.452,316.817 399.48,316.559 401.9,313.748ZM393.8,290.776C393.8,290.776 411.252,272.537 436.453,278.48C461.482,284.381 468.02,308.078 468.02,308.078C468.983,311.654 472.504,313.618 475.879,312.462C479.254,311.305 481.212,307.464 480.25,303.888C480.25,303.888 472.051,272.827 439.6,265.175C407.321,257.564 385.038,281.241 385.038,281.241C382.495,283.924 382.393,288.238 384.811,290.869C387.229,293.501 391.257,293.459 393.8,290.776Z" />
        <path
            d="M255.866,241.146C257.285,243.182 259.482,244.541 261.936,244.904L292.436,249.404C294.827,249.756 297.259,249.133 299.185,247.674L315.685,235.174C319.15,232.549 320.243,227.823 318.284,223.943L304.338,196.331C304.338,196.331 384.748,230.291 384.748,230.291C387.729,231.55 391.156,231.112 393.725,229.143C396.293,227.175 397.607,223.98 397.166,220.774L391.666,180.774C391.224,177.559 389.086,174.832 386.07,173.635L226.07,110.135C222.487,108.713 218.397,109.73 215.898,112.665C213.399,115.599 213.046,119.799 215.02,123.11L256.829,193.213C256.829,193.213 239.829,194.01 239.829,194.01C236.555,194.163 233.624,196.084 232.176,199.024C230.728,201.963 230.993,205.458 232.866,208.146L255.866,241.146Z" />
        <path
            d="M357.61,364.321C356.672,362.987 355.389,361.934 353.899,361.273L291.899,333.773C288.372,332.208 284.24,333.067 281.627,335.906C279.014,338.746 278.502,342.935 280.355,346.32L287.566,359.5C287.566,359.5 276.75,359.5 276.75,359.5C273.129,359.5 269.861,361.67 268.455,365.007C267.05,368.344 267.782,372.198 270.312,374.789L279.864,384.568C279.864,384.568 276.896,385.193 276.896,385.193C273.799,385.845 271.272,388.076 270.241,391.068C269.21,394.061 269.827,397.375 271.865,399.796C328.983,467.644 409.441,497.677 510.577,493.994C513.115,493.902 515.495,492.742 517.132,490.8C518.768,488.858 519.508,486.316 519.17,483.799L516.264,462.214C516.264,462.214 532.114,446.364 532.114,446.364C533.89,444.588 534.843,442.151 534.743,439.641C534.643,437.131 533.498,434.778 531.586,433.149L518.086,421.649C516.726,420.49 515.051,419.762 513.275,419.559C483.085,416.097 457.761,414.251 433.459,399.33C433.142,399.136 431.407,397.92 428.174,397.99C426.352,398.029 418.894,399.648 407.165,398.547C389.365,394.366 374.817,386.196 366.465,376.903C366.464,376.902 357.61,364.321 357.61,364.321Z" />
    </g>
</svg>